<?xml version="1.0" encoding="UTF-8" standalone="no"?>
<!-- Created with Inkscape (http://www.inkscape.org/) -->

<svg
   version="1.1"
   id="svg2"
   width="768"
   height="672"
   viewBox="0 0 768 672"
   sodipodi:docname="legend.svg"
   inkscape:version="1.2.2 (732a01da63, 2022-12-09)"
   xmlns:inkscape="http://www.inkscape.org/namespaces/inkscape"
   xmlns:sodipodi="http://sodipodi.sourceforge.net/DTD/sodipodi-0.dtd"
   xmlns="http://www.w3.org/2000/svg"
   xmlns:svg="http://www.w3.org/2000/svg">
  <defs
     id="defs6">
    <clipPath
       clipPathUnits="userSpaceOnUse"
       id="clipPath32">
      <path
         d="M -1021,-463 H 1794 V 1233 H -1021 Z"
         id="path30" />
    </clipPath>
    <clipPath
       clipPathUnits="userSpaceOnUse"
       id="clipPath52">
      <path
         d="M -1021,-463 H 1794 V 1233 H -1021 Z"
         id="path50" />
    </clipPath>
    <clipPath
       clipPathUnits="userSpaceOnUse"
       id="clipPath96">
      <path
         d="M -1021,-463 H 1794 V 1233 H -1021 Z"
         id="path94" />
    </clipPath>
    <clipPath
       clipPathUnits="userSpaceOnUse"
       id="clipPath116">
      <path
         d="M -1021,-463 H 1794 V 1233 H -1021 Z"
         id="path114" />
    </clipPath>
    <clipPath
       clipPathUnits="userSpaceOnUse"
       id="clipPath240">
      <path
         d="M -1070,-416 H 1976 V 1175 H -1070 Z"
         id="path238" />
    </clipPath>
  </defs>
  <sodipodi:namedview
     id="namedview4"
     pagecolor="#ffffff"
     bordercolor="#000000"
     borderopacity="0.25"
     inkscape:showpageshadow="2"
     inkscape:pageopacity="0.0"
     inkscape:pagecheckerboard="0"
     inkscape:deskcolor="#d1d1d1"
     showgrid="false"
     inkscape:zoom="1.5282738"
     inkscape:cx="491.73126"
     inkscape:cy="167.50925"
     inkscape:window-width="3840"
     inkscape:window-height="2054"
     inkscape:window-x="6901"
     inkscape:window-y="-11"
     inkscape:window-maximized="1"
     inkscape:current-layer="g10">
    <inkscape:page
       x="0"
       y="0"
       id="page8"
       width="768"
       height="672" />
  </sodipodi:namedview>
  <g
     id="g10"
     inkscape:groupmode="layer"
     inkscape:label="Page 1"
     transform="matrix(1.3333333,0,0,-1.3333333,0,672)">
    <g
       id="g769"
       transform="translate(-274.32912,-64.288217)">
      <path
         d="m 311.1625,137.52312 h 14 14"
         style="fill:none;stroke:#7dce82;stroke-width:2;stroke-linecap:square;stroke-linejoin:round;stroke-miterlimit:10;stroke-dasharray:none;stroke-opacity:1"
         id="path294" />
      <path
         d="m 325.1625,134.02312 c 0.92821,0 1.81853,0.36879 2.47487,1.02513 0.65635,0.65634 1.02513,1.54666 1.02513,2.47487 0,0.92822 -0.36878,1.81853 -1.02513,2.47488 -0.65634,0.65634 -1.54666,1.02512 -2.47487,1.02512 -0.92821,0 -1.81853,-0.36878 -2.47487,-1.02512 -0.65635,-0.65635 -1.02513,-1.54666 -1.02513,-2.47488 0,-0.92821 0.36878,-1.81853 1.02513,-2.47487 0.65634,-0.65634 1.54666,-1.02513 2.47487,-1.02513 z"
         style="fill:#7dce82;fill-opacity:1;fill-rule:nonzero;stroke:#ffffff;stroke-width:1;stroke-linecap:butt;stroke-linejoin:round;stroke-miterlimit:10;stroke-dasharray:none;stroke-opacity:1"
         id="path296" />
      <g
         id="g298"
         transform="translate(350.3625,132.62312)">
        <text
           xml:space="preserve"
           transform="scale(1,-1)"
           style="font-variant:normal;font-weight:normal;font-size:14px;font-family:'DejaVu Sans';-inkscape-font-specification:DejaVuSans;writing-mode:lr-tb;fill:#000000;fill-opacity:1;fill-rule:nonzero;stroke:none"
           id="text302"><tspan
             x="0 10.85 16.604 25.186001 34.076 42.952 51.841999 62.369999 71.945999 80.091125 85.145126 89.275124"
             y="0"
             sodipodi:role="line"
             id="tspan300">GraphSHAP-IQ</tspan></text>
      </g>
    </g>
    <rect
       style="fill:#ffffff;fill-opacity:1;stroke:#cacaca;stroke-width:2.25000006;stroke-linejoin:round;stroke-dasharray:none;stroke-opacity:1;paint-order:stroke markers fill"
       id="rect1507-4"
       width="1074.4374"
       height="65.946632"
       x="7.0587182"
       y="-600.28003"
       transform="scale(1,-1)"
       inkscape:export-filename="legend_paper.pdf"
       inkscape:export-xdpi="96"
       inkscape:export-ydpi="96" />
    <g
       id="g1993"
       transform="translate(-28.954236,160.96592)">
      <g
         id="g160"
         transform="translate(66.709134,412.50025)">
        <text
           xml:space="preserve"
           transform="matrix(1,0,0,-1,0,0.609375)"
           style="font-variant:normal;font-weight:bold;font-size:14px;font-family:'DejaVu Sans';-inkscape-font-specification:DejaVuSans-Bold;writing-mode:lr-tb;fill:#000000;fill-opacity:1;fill-rule:nonzero;stroke:none"
           id="text164"><tspan
             x="0 10.083008"
             y="0"
             sodipodi:role="line"
             id="tspan162">SV</tspan></text>
      </g>
      <g
         id="g727"
         transform="translate(685.57743,137.89226)">
        <path
           d="m 311.1625,281.35125 h 14 14"
           style="fill:none;stroke:#000000;stroke-width:2;stroke-linecap:square;stroke-linejoin:round;stroke-miterlimit:10;stroke-dasharray:none;stroke-opacity:1"
           id="path216" />
        <path
           d="m 325.1625,277.85125 c 0.92821,0 1.81853,0.36878 2.47487,1.02513 0.65635,0.65634 1.02513,1.54666 1.02513,2.47487 0,0.92821 -0.36878,1.81853 -1.02513,2.47487 -0.65634,0.65635 -1.54666,1.02513 -2.47487,1.02513 -0.92821,0 -1.81853,-0.36878 -2.47487,-1.02513 -0.65635,-0.65634 -1.02513,-1.54666 -1.02513,-2.47487 0,-0.92821 0.36878,-1.81853 1.02513,-2.47487 0.65634,-0.65635 1.54666,-1.02513 2.47487,-1.02513 z"
           style="fill:#000000;fill-opacity:1;fill-rule:nonzero;stroke:#ffffff;stroke-width:1;stroke-linecap:butt;stroke-linejoin:round;stroke-miterlimit:10;stroke-dasharray:none;stroke-opacity:1"
           id="path218" />
        <g
           id="g220"
           transform="translate(350.3625,276.45125)">
          <text
             xml:space="preserve"
             transform="scale(1,-1)"
             style="font-variant:normal;font-weight:normal;font-size:14px;font-family:'DejaVu Sans';-inkscape-font-specification:DejaVuSans;writing-mode:lr-tb;fill:#000000;fill-opacity:1;fill-rule:nonzero;stroke:none"
             id="text224"><tspan
               x="0 7.5636249 12.617625 21.507626 30.383625 38.965626 47.855625 51.747623 60.357624"
               y="0"
               sodipodi:role="line"
               id="tspan222">L-Shapley</tspan></text>
        </g>
      </g>
      <g
         id="g226"
         transform="translate(41.190146,380.95877)">
        <text
           xml:space="preserve"
           transform="matrix(1,0,0,-1,0,0.609375)"
           style="font-variant:normal;font-weight:bold;font-size:14px;font-family:'DejaVu Sans';-inkscape-font-specification:DejaVuSans-Bold;writing-mode:lr-tb;fill:#000000;fill-opacity:1;fill-rule:nonzero;stroke:none"
           id="text230"><tspan
             x="0 26.926758 37.009766 42.21875"
             y="0"
             sodipodi:role="line"
             id="tspan228">2SII</tspan></text>
        <g
           id="g232"
           transform="matrix(0.014,0,0,0.014,12.46875,0.609375)">
          <g
             id="g234">
            <g
               id="g236"
               clip-path="url(#clipPath240)">
              <path
                 d="M 106,371 H 732 V 256 H 106 Z"
                 style="fill:#000000;fill-opacity:1;fill-rule:nonzero;stroke:none"
                 id="path242" />
            </g>
          </g>
        </g>
      </g>
      <g
         id="g692"
         transform="translate(-201.69815,33.800947)">
        <path
           d="m 311.1625,384.08562 h 14 14"
           style="fill:none;stroke:#ff6f00;stroke-width:2;stroke-linecap:square;stroke-linejoin:round;stroke-miterlimit:10;stroke-dasharray:none;stroke-opacity:1"
           id="path166" />
        <path
           d="m 325.1625,380.58562 3.5,7 h -7 z"
           style="fill:#ff6f00;fill-opacity:1;fill-rule:nonzero;stroke:#ffffff;stroke-width:1;stroke-linecap:butt;stroke-linejoin:miter;stroke-miterlimit:10;stroke-dasharray:none;stroke-opacity:1"
           id="path168" />
        <g
           id="g170"
           transform="translate(350.3625,379.18563)">
          <text
             xml:space="preserve"
             transform="scale(1,-1)"
             style="font-variant:normal;font-weight:normal;font-size:14px;font-family:'DejaVu Sans';-inkscape-font-specification:DejaVuSans;writing-mode:lr-tb;fill:#000000;fill-opacity:1;fill-rule:nonzero;stroke:none"
             id="text174"><tspan
               x="0 8.4965 17.106501 22.626125 31.502125 40.112125 44.004124 52.894127 63.422127 72.998123"
               y="0"
               sodipodi:role="line"
               id="tspan172">KernelSHAP</tspan></text>
        </g>
      </g>
      <g
         id="g734"
         transform="translate(-201.69815,146.89082)">
        <path
           d="m 311.1625,240.2575 h 14 14"
           style="fill:none;stroke:#ff6f00;stroke-width:2;stroke-linecap:square;stroke-linejoin:round;stroke-miterlimit:10;stroke-dasharray:none;stroke-opacity:1"
           id="path244" />
        <path
           d="m 325.1625,236.7575 3.5,7 h -7 z"
           style="fill:#ff6f00;fill-opacity:1;fill-rule:nonzero;stroke:#ffffff;stroke-width:1;stroke-linecap:butt;stroke-linejoin:miter;stroke-miterlimit:10;stroke-dasharray:none;stroke-opacity:1"
           id="path246" />
        <g
           id="g248"
           transform="translate(350.3625,235.3575)">
          <text
             xml:space="preserve"
             transform="scale(1,-1)"
             style="font-variant:normal;font-weight:normal;font-size:14px;font-family:'DejaVu Sans';-inkscape-font-specification:DejaVuSans;writing-mode:lr-tb;fill:#000000;fill-opacity:1;fill-rule:nonzero;stroke:none"
             id="text252"><tspan
               x="0 8.4965 17.106501 22.626125 31.502125 40.112125 44.004124 52.894127 63.422127 72.998123 81.14325 86.19725 90.327248"
               y="0"
               sodipodi:role="line"
               id="tspan250">KernelSHAP-IQ</tspan></text>
        </g>
      </g>
      <g
         id="g699"
         transform="translate(-45.615633,54.347827)">
        <path
           d="m 311.1625,363.53875 h 14 14"
           style="fill:none;stroke:#ffba08;stroke-width:2;stroke-linecap:square;stroke-linejoin:round;stroke-miterlimit:10;stroke-dasharray:none;stroke-opacity:1"
           id="path176" />
        <path
           d="m 325.1625,360.03875 3.5,7 h -7 z"
           style="fill:#ffba08;fill-opacity:1;fill-rule:nonzero;stroke:#ffffff;stroke-width:1;stroke-linecap:butt;stroke-linejoin:miter;stroke-miterlimit:10;stroke-dasharray:none;stroke-opacity:1"
           id="path178" />
        <g
           id="g180"
           transform="translate(350.3625,358.63875)">
          <text
             xml:space="preserve"
             transform="scale(1,-1)"
             style="font-variant:normal;font-weight:normal;font-size:14px;font-family:'DejaVu Sans';-inkscape-font-specification:DejaVuSans;writing-mode:lr-tb;fill:#000000;fill-opacity:1;fill-rule:nonzero;stroke:none"
             id="text184"><tspan
               x="0 8.1059999 13.16 21.742001 30.632 39.521999 43.973999 48.425999 57.316002 67.844002 77.419998"
               y="0"
               sodipodi:role="line"
               id="tspan182">k-add. SHAP</tspan></text>
        </g>
      </g>
      <g
         id="g741"
         transform="translate(-45.615633,167.4377)">
        <path
           d="m 311.1625,219.71062 h 14 14"
           style="fill:none;stroke:#ffba08;stroke-width:2;stroke-linecap:square;stroke-linejoin:round;stroke-miterlimit:10;stroke-dasharray:none;stroke-opacity:1"
           id="path254" />
        <path
           d="m 325.1625,216.21062 3.5,7 h -7 z"
           style="fill:#ffba08;fill-opacity:1;fill-rule:nonzero;stroke:#ffffff;stroke-width:1;stroke-linecap:butt;stroke-linejoin:miter;stroke-miterlimit:10;stroke-dasharray:none;stroke-opacity:1"
           id="path256" />
        <g
           id="g258"
           transform="translate(350.3625,214.81062)">
          <text
             xml:space="preserve"
             transform="scale(1,-1)"
             style="font-variant:normal;font-weight:normal;font-size:14px;font-family:'DejaVu Sans';-inkscape-font-specification:DejaVuSans;writing-mode:lr-tb;fill:#000000;fill-opacity:1;fill-rule:nonzero;stroke:none"
             id="text262"><tspan
               x="0 4.1300001 13.006 20.705999 25.158001 29.610001 38.106499 46.716499 52.236126 61.112125 69.722122 73.614128 82.504128 93.032127 102.60812 110.75325 115.80725 119.93725"
               y="0"
               sodipodi:role="line"
               id="tspan260">Inc. KernelSHAP-IQ</tspan></text>
        </g>
      </g>
      <g
         id="g706"
         transform="translate(140.07688,76.251641)">
        <path
           d="m 311.1625,342.99187 h 14 14"
           style="fill:none;stroke:#7d53de;stroke-width:2;stroke-linecap:square;stroke-linejoin:round;stroke-miterlimit:10;stroke-dasharray:none;stroke-opacity:1"
           id="path186" />
        <path
           d="m 323.4125,339.49187 1.75,1.75 1.75,-1.75 1.75,1.75 -1.75,1.75 1.75,1.75 -1.75,1.75 -1.75,-1.75 -1.75,1.75 -1.75,-1.75 1.75,-1.75 -1.75,-1.75 z"
           style="fill:#7d53de;fill-opacity:1;fill-rule:nonzero;stroke:#ffffff;stroke-width:1;stroke-linecap:butt;stroke-linejoin:miter;stroke-miterlimit:10;stroke-dasharray:none;stroke-opacity:1"
           id="path188" />
        <g
           id="g190"
           transform="translate(350.3625,338.09187)">
          <text
             xml:space="preserve"
             transform="scale(1,-1)"
             style="font-variant:normal;font-weight:normal;font-size:14px;font-family:'DejaVu Sans';-inkscape-font-specification:DejaVuSans;writing-mode:lr-tb;fill:#000000;fill-opacity:1;fill-rule:nonzero;stroke:none"
             id="text194"><tspan
               x="0 7.9419999 16.552 22.071625 35.707626 44.583626 50.071625 58.653625 64.141624 68.033623 76.601624 85.477623 89.929626 98.819626 107.40163 121.03763 129.92763 133.81963 137.71162 146.58763"
               y="0"
               sodipodi:role="line"
               id="tspan192">Permutation Sampling</tspan></text>
        </g>
      </g>
      <g
         id="g748"
         transform="translate(140.07688,188.53828)">
        <path
           d="m 311.1625,199.16375 h 14 14"
           style="fill:none;stroke:#7d53de;stroke-width:2;stroke-linecap:square;stroke-linejoin:round;stroke-miterlimit:10;stroke-dasharray:none;stroke-opacity:1"
           id="path264" />
        <path
           d="m 323.4125,195.66375 1.75,1.75 1.75,-1.75 1.75,1.75 -1.75,1.75 1.75,1.75 -1.75,1.75 -1.75,-1.75 -1.75,1.75 -1.75,-1.75 1.75,-1.75 -1.75,-1.75 z"
           style="fill:#7d53de;fill-opacity:1;fill-rule:nonzero;stroke:#ffffff;stroke-width:1;stroke-linecap:butt;stroke-linejoin:miter;stroke-miterlimit:10;stroke-dasharray:none;stroke-opacity:1"
           id="path266" />
        <g
           id="g268"
           transform="translate(350.3625,194.26375)">
          <text
             xml:space="preserve"
             transform="scale(1,-1)"
             style="font-variant:normal;font-weight:normal;font-size:14px;font-family:'DejaVu Sans';-inkscape-font-specification:DejaVuSans;writing-mode:lr-tb;fill:#000000;fill-opacity:1;fill-rule:nonzero;stroke:none"
             id="text272"><tspan
               x="0 7.9419999 16.552 22.071625 35.707626 44.583626 50.071625 58.653625 64.141624 68.033623 76.601624 85.477623 89.929626 98.819626 107.40163 121.03763 129.92763 133.81963 137.71162 146.58763"
               y="0"
               sodipodi:role="line"
               id="tspan270">Permutation Sampling</tspan></text>
        </g>
      </g>
      <g
         id="g713"
         transform="translate(349.80162,95.441577)">
        <path
           d="m 311.1625,322.445 h 14 14"
           style="fill:none;stroke:#ef27a6;stroke-width:2;stroke-linecap:square;stroke-linejoin:round;stroke-miterlimit:10;stroke-dasharray:none;stroke-opacity:1"
           id="path196" />
        <path
           d="m 323.99583,318.945 h 2.33334 v 2.33333 h 2.33333 v 2.33334 h -2.33333 v 2.33333 h -2.33334 v -2.33333 h -2.33333 v -2.33334 h 2.33333 z"
           style="fill:#ef27a6;fill-opacity:1;fill-rule:nonzero;stroke:#ffffff;stroke-width:1;stroke-linecap:butt;stroke-linejoin:miter;stroke-miterlimit:10;stroke-dasharray:none;stroke-opacity:1"
           id="path198" />
        <g
           id="g200"
           transform="translate(350.3625,317.545)">
          <text
             xml:space="preserve"
             transform="scale(1,-1)"
             style="font-variant:normal;font-weight:normal;font-size:14px;font-family:'DejaVu Sans';-inkscape-font-specification:DejaVuSans;writing-mode:lr-tb;fill:#000000;fill-opacity:1;fill-rule:nonzero;stroke:none"
             id="text204"><tspan
               x="0 10.248 19.124001 28.014 31.906 40.487999 47.782001 56.391998 65.281998 69.734001 78.230499 86.8405 92.360123 101.23612 109.84612 113.73813 122.62813 133.15613 142.73213"
               y="0"
               sodipodi:role="line"
               id="tspan202">Unbiased KernelSHAP</tspan></text>
        </g>
      </g>
      <g
         id="g755"
         transform="translate(349.80162,208.6545)">
        <path
           d="m 311.1625,178.61687 h 14 14"
           style="fill:none;stroke:#ef27a6;stroke-width:2;stroke-linecap:square;stroke-linejoin:round;stroke-miterlimit:10;stroke-dasharray:none;stroke-opacity:1"
           id="path274" />
        <path
           d="m 323.99583,175.11687 h 2.33334 v 2.33334 h 2.33333 v 2.33333 h -2.33333 v 2.33333 h -2.33334 v -2.33333 h -2.33333 v -2.33333 h 2.33333 z"
           style="fill:#ef27a6;fill-opacity:1;fill-rule:nonzero;stroke:#ffffff;stroke-width:1;stroke-linecap:butt;stroke-linejoin:miter;stroke-miterlimit:10;stroke-dasharray:none;stroke-opacity:1"
           id="path276" />
        <g
           id="g278"
           transform="translate(350.3625,173.71687)">
          <text
             xml:space="preserve"
             transform="scale(1,-1)"
             style="font-variant:normal;font-weight:normal;font-size:14px;font-family:'DejaVu Sans';-inkscape-font-specification:DejaVuSans;writing-mode:lr-tb;fill:#000000;fill-opacity:1;fill-rule:nonzero;stroke:none"
             id="text282"><tspan
               x="0 8.8900003 19.417999 28.993999 37.139126 42.193127 46.323124"
               y="0"
               sodipodi:role="line"
               id="tspan280">SHAP-IQ</tspan></text>
        </g>
      </g>
      <g
         id="g720"
         transform="translate(556.01949,116.30769)">
        <path
           d="m 311.1625,301.89812 h 14 14"
           style="fill:none;stroke:#00b4d8;stroke-width:2;stroke-linecap:square;stroke-linejoin:round;stroke-miterlimit:10;stroke-dasharray:none;stroke-opacity:1"
           id="path206" />
        <path
           d="m 325.1625,296.94838 2.96985,4.94974 -2.96985,4.94975 -2.96985,-4.94975 z"
           style="fill:#00b4d8;fill-opacity:1;fill-rule:nonzero;stroke:#ffffff;stroke-width:1;stroke-linecap:butt;stroke-linejoin:miter;stroke-miterlimit:10;stroke-dasharray:none;stroke-opacity:1"
           id="path208" />
        <g
           id="g210"
           transform="translate(350.3625,296.99812)">
          <text
             xml:space="preserve"
             transform="scale(1,-1)"
             style="font-variant:normal;font-weight:normal;font-size:14px;font-family:'DejaVu Sans';-inkscape-font-specification:DejaVuSans;writing-mode:lr-tb;fill:#000000;fill-opacity:1;fill-rule:nonzero;stroke:none"
             id="text214"><tspan
               x="0 8.8900003 17.575375 27.151375 36.881374"
               y="0"
               sodipodi:role="line"
               id="tspan212">SVARM</tspan></text>
        </g>
      </g>
      <g
         id="g762"
         transform="translate(556.01949,228.98589)">
        <path
           d="m 311.1625,158.07 h 14 14"
           style="fill:none;stroke:#00b4d8;stroke-width:2;stroke-linecap:square;stroke-linejoin:round;stroke-miterlimit:10;stroke-dasharray:none;stroke-opacity:1"
           id="path284" />
        <path
           d="m 325.1625,153.12025 2.96985,4.94975 -2.96985,4.94975 -2.96985,-4.94975 z"
           style="fill:#00b4d8;fill-opacity:1;fill-rule:nonzero;stroke:#ffffff;stroke-width:1;stroke-linecap:butt;stroke-linejoin:miter;stroke-miterlimit:10;stroke-dasharray:none;stroke-opacity:1"
           id="path286" />
        <g
           id="g288"
           transform="translate(350.3625,153.17)">
          <text
             xml:space="preserve"
             transform="scale(1,-1)"
             style="font-variant:normal;font-weight:normal;font-size:14px;font-family:'DejaVu Sans';-inkscape-font-specification:DejaVuSans;writing-mode:lr-tb;fill:#000000;fill-opacity:1;fill-rule:nonzero;stroke:none"
             id="text292"><tspan
               x="0 8.8900003 17.575375 27.151375 36.881374 48.963375 54.017376 58.147373"
               y="0"
               sodipodi:role="line"
               id="tspan290">SVARM-IQ</tspan></text>
        </g>
      </g>
      <g
         id="g1910">
        <rect
           style="fill:#ffffff;fill-opacity:1;stroke:#ffffff;stroke-width:2.625;stroke-linejoin:round;stroke-opacity:1;paint-order:stroke markers fill"
           id="rect1507"
           width="77.53846"
           height="13.740993"
           x="534.11316"
           y="-446.96021"
           transform="scale(1,-1)" />
        <g
           id="g154"
           transform="translate(534.90193,434.51111)">
          <text
             xml:space="preserve"
             transform="matrix(1,0,0,-1,0,0.359375)"
             style="font-variant:normal;font-weight:bold;font-size:14px;font-family:'DejaVu Sans';-inkscape-font-specification:DejaVuSans-Bold;writing-mode:lr-tb;fill:#000000;fill-opacity:1;fill-rule:nonzero;stroke:none"
             id="text158"><tspan
               x="0 10.670898 20.118164 28.451172 37.946289 42.745117 47.543945 57.510742 67.005859"
               y="0"
               sodipodi:role="line"
               id="tspan156">Baselines</tspan></text>
        </g>
      </g>
    </g>
  </g>
</svg>
